HIERARCHY
ROOT Hips
{
 OFFSET 0.000000 0.000000 0.000000
 CHANNELS 6 Xposition Yposition Zposition Yrotation Xrotation Zrotation
 JOINT Chest
 {
  OFFSET 0.000000 9.585900 0.002600
  CHANNELS 3 Yrotation Xrotation Zrotation
  JOINT Chest2
  {
   OFFSET 0.000000 9.601200 -0.005300
   CHANNELS 3 Yrotation Xrotation Zrotation
   JOINT Chest3
   {
    OFFSET 0.000000 9.561800 0.000000
    CHANNELS 3 Yrotation Xrotation Zrotation
    JOINT Chest4
    {
     OFFSET 0.000000 9.552100 0.000000
     CHANNELS 3 Yrotation Xrotation Zrotation
     JOINT Neck
     {
      OFFSET 0.000000 14.453000 0.000000
      CHANNELS 3 Yrotation Xrotation Zrotation
      JOINT Head
      {
       OFFSET 0.000000 8.936500 -0.011300
       CHANNELS 3 Yrotation Xrotation Zrotation
       End Site
       {
        OFFSET 0.000000 17.073600 -0.006000
       }
      }
     }
     JOINT RightCollar
     {
      OFFSET -2.921100 9.558500 0.000000
      CHANNELS 3 Yrotation Xrotation Zrotation
      JOINT RightShoulder
      {
       OFFSET -13.519700 0.000000 0.000000
       CHANNELS 3 Yrotation Xrotation Zrotation
       JOINT RightElbow
       {
        OFFSET 0.000000 -29.696600 0.000000
        CHANNELS 3 Yrotation Xrotation Zrotation
        JOINT RightWrist
        {
         OFFSET 0.000000 -24.004700 0.000000
         CHANNELS 3 Yrotation Xrotation Zrotation
         End Site
         {
          OFFSET 0.000000 -17.728500 0.000000
         }
        }
       }
      }
     }
     JOINT LeftCollar
     {
      OFFSET 2.921100 9.558500 0.000000
      CHANNELS 3 Yrotation Xrotation Zrotation
      JOINT LeftShoulder
      {
       OFFSET 13.519700 0.000000 0.000000
       CHANNELS 3 Yrotation Xrotation Zrotation
       JOINT LeftElbow
       {
        OFFSET 0.000000 -29.696600 0.000000
        CHANNELS 3 Yrotation Xrotation Zrotation
        JOINT LeftWrist
        {
         OFFSET 0.000000 -24.004700 0.000000
         CHANNELS 3 Yrotation Xrotation Zrotation
         End Site
         {
          OFFSET 0.000000 -17.728500 0.000000
         }
        }
       }
      }
     }
    }
   }
  }
 }
 JOINT RightHip
 {
  OFFSET -7.771700 -0.012900 -0.001300
  CHANNELS 3 Yrotation Xrotation Zrotation
  JOINT RightKnee
  {
   OFFSET 0.000000 -40.869800 0.001200
   CHANNELS 3 Yrotation Xrotation Zrotation
   JOINT RightAnkle
   {
    OFFSET 0.000000 -39.717900 0.002100
    CHANNELS 3 Yrotation Xrotation Zrotation
    JOINT RightToe
    {
     OFFSET 0.000000 -4.965400 11.033500
     CHANNELS 3 Yrotation Xrotation Zrotation
     End Site
     {
      OFFSET 0.000000 -1.423100 5.872300
     }
    }
   }
  }
 }
 JOINT LeftHip
 {
  OFFSET 7.771700 -0.012900 -0.001300
  CHANNELS 3 Yrotation Xrotation Zrotation
  JOINT LeftKnee
  {
   OFFSET 0.000000 -40.869800 0.001200
   CHANNELS 3 Yrotation Xrotation Zrotation
   JOINT LeftAnkle
   {
    OFFSET 0.000000 -39.717900 0.002100
    CHANNELS 3 Yrotation Xrotation Zrotation
    JOINT LeftToe
    {
     OFFSET 0.000000 -4.965400 11.033500
     CHANNELS 3 Yrotation Xrotation Zrotation
     End Site
     {
      OFFSET 0.000000 -1.423100 5.872300
     }
    }
   }
  }
 }
}
MOTION
Frames: 5
Frame Time: 0.008333
0.000000 85.388000 0.000000 0.000000 -5.767877 0.000000 0.000000 11.653817 0.000000 0.000000 -5.885947 0.000000 0.000000 -0.000000 0.000000 0.000000 -0.000000 0.000000 0.000000 12.528835 0.000000 0.000000 0.711642 0.000000 0.000000 -0.000000 0.000000 0.000000 0.000000 -90.000000 0.000000 -2.309062 0.000000 0.000000 2.309062 0.000000 0.000000 -0.000000 0.000000 0.000000 -0.000000 90.000000 0.000000 -2.309062 0.000000 0.000000 2.309062 0.000000 0.000000 8.520406 0.000000 0.000000 1.905762 0.000000 -0.000000 -4.658285 0.000000 0.000000 -0.000000 0.000000 0.000000 8.520406 0.000000 0.000000 1.905762 0.000000 -0.000000 -4.658285 0.000000 0.000000 -0.000000 0.000000
-48.169540 46.921824 9.174819 -177.315571 -30.282546 -3.881609 -1.517569 15.902411 1.270145 -0.142323 1.632460 0.219496 -0.219144 2.737718 0.368059 -0.831267 14.373969 1.831782 -9.289790 21.475228 -1.671336 -16.356725 4.337835 -0.451707 2.526953 -0.865826 -2.334913 -0.716707 -32.145164 -31.065862 -70.134384 -67.069083 97.390345 -2.615208 -3.169324 3.296108 0.249032 -1.530277 1.945559 0.606594 -6.212312 12.350065 59.262121 -49.271692 -103.822607 3.108969 5.118415 -2.004950 8.036200 -57.291694 -6.807661 168.587939 81.393015 176.282873 -12.452935 -20.657499 -3.159943 0.028633 -0.048611 0.279602 -1.822990 -57.922620 8.046638 -96.305435 82.302730 -102.121798 4.275256 -4.641689 6.395024 -0.099407 0.329679 0.047918
-48.177308 46.926266 9.176235 -177.241338 -30.233594 -3.891370 -1.509825 15.865285 1.259178 -0.120911 1.623184 0.216821 -0.218519 2.718553 0.364128 -0.851716 14.340262 1.824998 -8.957491 21.484909 -1.569062 -15.783208 4.343297 -0.357801 2.572764 -0.946812 -2.326324 -0.629753 -32.593142 -31.370067 -67.022630 -67.202589 93.171328 -2.640851 -3.177421 2.912028 0.295241 -1.560660 1.942374 0.543225 -6.023587 12.314440 58.869513 -49.229271 -103.587440 3.070410 5.160457 -2.086183 8.119804 -57.320945 -6.904031 168.573378 81.387711 176.280754 -12.460346 -20.652250 -3.202499 0.011656 -0.052436 0.290871 -1.832538 -57.961307 8.001339 -96.103007 82.314320 -101.949231 4.253134 -4.625493 6.433435 -0.113878 0.330085 0.027585
-48.180801 46.932776 9.176225 -177.185691 -30.188867 -3.922133 -1.480500 15.829748 1.275737 -0.157704 1.615070 0.220813 -0.159109 2.694449 0.350718 -0.864395 14.302008 1.820919 -8.559742 21.499673 -1.450638 -15.095389 4.355505 -0.253086 2.598575 -1.039815 -2.311539 -0.546003 -33.055209 -31.675676 -63.710669 -67.214693 88.734351 -2.625255 -3.086675 2.383102 0.335465 -1.590771 1.946506 0.490668 -5.825337 12.278555 58.463045 -49.152662 -103.350296 3.049945 5.215184 -2.099251 8.195674 -57.344997 -6.961090 168.586978 81.389978 176.320490 -12.460929 -20.642411 -3.217267 0.011714 -0.058061 0.277622 -1.873979 -57.995599 8.007648 -95.953364 82.319283 -101.813012 4.233778 -4.625383 6.437952 -0.093685 0.333180 0.011780
-48.182893 46.940812 9.175085 -177.147708 -30.147737 -3.957076 -1.433781 15.793924 1.304622 -0.136185 1.601901 0.215888 -0.175183 2.676088 0.351160 -0.852156 14.256580 1.813448 -8.109188 21.516703 -1.317211 -14.315993 4.370359 -0.135953 2.607056 -1.142798 -2.297809 -0.504590 -33.540796 -31.964712 -60.297917 -66.981098 84.223663 -2.587501 -2.885767 1.723794 0.366896 -1.620198 1.959526 0.446409 -5.618109 12.239964 58.052120 -49.050286 -103.113451 3.049396 5.274676 -2.034808 8.285709 -57.363141 -7.026032 168.617882 81.394737 176.399949 -12.425201 -20.632233 -3.241695 0.015442 -0.064856 0.261135 -1.893650 -58.013101 8.041897 -95.691026 82.301675 -101.555333 4.157292 -4.653959 6.426226 -0.037807 0.377536 0.047236
